<svg viewBox="0 0 24 24" fill="none" xmlns="http://www.w3.org/2000/svg">
<path fill-rule="evenodd" clip-rule="evenodd" d="M20.1816 19.3633C20.6335 19.3633 20.9999 19.7299 21 20.1816C21 20.6335 20.6335 21 20.1816 21H3.81836C3.36649 21 3 20.6335 3 20.1816C3.0001 19.7299 3.36655 19.3633 3.81836 19.3633H20.1816ZM12 3C12.5521 3.00026 13 3.44788 13 4V15.6172L19.3672 10.4082C19.7946 10.0587 20.4247 10.1216 20.7744 10.5488C21.1237 10.9763 21.0601 11.6065 20.6328 11.9561L12.6328 18.502L12.5625 18.5547C12.1997 18.8016 11.7124 18.7839 11.3672 18.502L3.36719 11.9561C2.9401 11.6064 2.87634 10.9762 3.22559 10.5488C3.57519 10.1215 4.20538 10.0589 4.63281 10.4082L11 15.6172V4C11 3.44784 11.4479 3.0002 12 3Z" fill="currentColor"/>
</svg>
