<svg viewBox="0 0 24 24" fill="none" xmlns="http://www.w3.org/2000/svg">
<path d="M9 13C10.1046 13 11 13.8954 11 15V19C11 20.1046 10.1046 21 9 21H5C3.89543 21 3 20.1046 3 19V15C3 13.8954 3.89543 13 5 13H9ZM19 13C20.1046 13 21 13.8954 21 15V19C21 20.1046 20.1046 21 19 21H15C13.8954 21 13 20.1046 13 19V15C13 13.8954 13.8954 13 15 13H19ZM5 19H9V15H5V19ZM15 19H19V15H15V19ZM9 3C10.1046 3 11 3.89543 11 5V9C11 10.1046 10.1046 11 9 11H5C3.89543 11 3 10.1046 3 9V5C3 3.89543 3.89543 3 5 3H9ZM19 3C20.1046 3 21 3.89543 21 5V9C21 10.1046 20.1046 11 19 11H15C13.8954 11 13 10.1046 13 9V5C13 3.89543 13.8954 3 15 3H19ZM5 9H9V5H5V9ZM15 9H19V5H15V9Z" fill="currentColor"/>
</svg>
